<?xml version="1.0" encoding="iso-8859-1"?>
<!-- Generator: Adobe Illustrator 18.1.1, SVG Export Plug-In . SVG Version: 6.00 Build 0)  -->
<svg version="1.1" id="Capa_1" xmlns="http://www.w3.org/2000/svg" xmlns:xlink="http://www.w3.org/1999/xlink" x="0px" y="0px"
	 viewBox="0 0 200 200" style="enable-background:new 0 0 200 200;" xml:space="preserve">
<path d="M125,72.096V5c0-2.761-2.238-5-5-5H80c-2.761,0-5,2.239-5,5v67.096C51.943,78.644,35,99.873,35,125c0,2.762,2.239,5,5,5
	h45.664l9.387,65.707c0.014,0.1,0.049,0.192,0.069,0.29c0.03,0.149,0.061,0.296,0.105,0.44c0.05,0.168,0.114,0.328,0.181,0.487
	c0.052,0.124,0.101,0.247,0.162,0.366c0.087,0.168,0.188,0.324,0.292,0.479c0.067,0.1,0.128,0.203,0.202,0.298
	c0.121,0.155,0.257,0.293,0.394,0.432c0.08,0.082,0.153,0.169,0.239,0.245c0.169,0.149,0.355,0.278,0.542,0.403
	c0.07,0.046,0.131,0.103,0.203,0.146c0.265,0.158,0.545,0.29,0.837,0.397c0.077,0.028,0.161,0.042,0.24,0.067
	c0.226,0.071,0.455,0.133,0.692,0.171c0.029,0.005,0.055,0.017,0.084,0.021c0.22,0.031,0.439,0.044,0.656,0.047
	c0.015,0,0.03,0.004,0.045,0.004c0.002,0,0.004,0,0.006,0s0.004,0,0.006,0c0.015,0,0.03-0.004,0.045-0.004
	c0.217-0.002,0.435-0.015,0.656-0.047c0.029-0.004,0.055-0.016,0.085-0.021c0.237-0.038,0.465-0.1,0.692-0.171
	c0.079-0.025,0.163-0.039,0.24-0.067c0.292-0.107,0.572-0.239,0.837-0.397c0.069-0.041,0.128-0.096,0.195-0.14
	c0.191-0.127,0.379-0.258,0.551-0.41c0.083-0.073,0.153-0.158,0.231-0.237c0.141-0.142,0.279-0.284,0.402-0.442
	c0.071-0.092,0.13-0.191,0.195-0.288c0.107-0.159,0.211-0.319,0.3-0.491c0.059-0.115,0.106-0.234,0.157-0.354
	c0.069-0.164,0.134-0.328,0.186-0.5c0.042-0.141,0.072-0.284,0.102-0.43c0.021-0.1,0.056-0.194,0.071-0.296L114.337,130H160
	c2.762,0,5-2.238,5-5C165,99.873,148.057,78.644,125,72.096z M115,22H85V10h30V22z M85,32h30v38.238
	c-1.648-0.149-3.314-0.238-5-0.238H90c-1.686,0-3.352,0.088-5,0.238V32z M90,80h20c23.123,0,42.219,17.532,44.716,40H45.285
	C47.781,97.532,66.878,80,90,80z M100,159.643L95.765,130h8.47L100,159.643z"/>
<g>
</g>
<g>
</g>
<g>
</g>
<g>
</g>
<g>
</g>
<g>
</g>
<g>
</g>
<g>
</g>
<g>
</g>
<g>
</g>
<g>
</g>
<g>
</g>
<g>
</g>
<g>
</g>
<g>
</g>
</svg>
